
Open SVG
Paste markup
Demo
Contribute
About
Powered by the incredible SVGO



<svg xmlns="http://www.w3.org/2000/svg" viewBox="0 0 96 96" width="512" height="512"><g data-name="02-shop"><path d="M95.846 30.9l-8-28A4 4 0 0084 0H12a4 4 0 00-3.846 2.9l-8 28c-.012.041-.01.084-.021.125a3.865 3.865 0 00-.091.563c-.011.105-.029.208-.032.313 0 .033-.01.064-.01.1v4a11.962 11.962 0 004 8.919V92a4 4 0 004 4h80a4 4 0 004-4V44.642A11.753 11.753 0 0095.8 36v-2.822a3.965 3.965 0 00.046-2.278zM84 40.205h-8a4.2 4.2 0 01-4.054-3.147c.031-.349.054-.7.054-1.058h16.2a4.209 4.209 0 01-4.2 4.205zM8 36h16a4 4 0 01-4 4h-8a4 4 0 01-4-4zm55.388-8H32.612l2.857-20h25.062zM64 36a4 4 0 01-4 4H36a4 4 0 01-4-4zm22.7-8H71.469L68.612 8h12.371zM15.017 8h12.371l-2.857 20H9.3zM24 88V60h16v28zm60 0H48V56a4 4 0 00-4-4H20a4 4 0 00-4 4v32h-4V48h8a11.941 11.941 0 008-3.081A11.941 11.941 0 0036 48h24a11.941 11.941 0 008.152-3.22A11.734 11.734 0 0076 47.8h8z"/><path d="M56 52a4 4 0 00-4 4v16a4 4 0 004 4h20a4 4 0 004-4V56a4 4 0 00-4-4zm16 16H60v-8h12z"/></g></svg>